# xmcd
#
# Track frame offsets:
#	150
#	15365
#	26581
#	45890
#	58801
#	77476
#	97299
#	119514
#	144898
#	155383
#	169641
#	179192
#
# Disc length: 2535 seconds
#
# Revision: 0
# Processed by: cddbd v1.5.1PL0 Copyright (c) Steve Scherf et al.
# Submitted via: dBpowerAMP V4.0
#
DISCID=9409e50c
DTITLE=Before Electricity - Wide Open Country
DYEAR=1900
DGENRE=Bluegrass
TTITLE0=My Shoes Keep Walking
TTITLE1=Lock My Heart
TTITLE2=Each Night at Nine
TTITLE3=Little Croquette
TTITLE4=Milk Cow Blues
TTITLE5=A House of Gold
TTITLE6=Kentucky Waltz
TTITLE7=Faded Love/Maidens Prayer
TTITLE8=Corrina Corrina
TTITLE9=Are You Teasing Me
TTITLE10=Mind Your Own Buisness
TTITLE11=A Closer Walk/Amazing Grace
EXTD=www.jasonrooks.com
EXTT0=
EXTT1=
EXTT2=
EXTT3=
EXTT4=
EXTT5=
EXTT6=
EXTT7=
EXTT8=
EXTT9=
EXTT10=
EXTT11=
PLAYORDER=
